<svg
  width="128"
  height="128"
  viewBox="0 0 128 128"
  fill="none"
  xmlns="http://www.w3.org/2000/svg"
>
  <rect width="128" height="128" rx="64" fill="#120D24" />
  <path
    d="M46 95V32H53.8261V62.2055C53.8261 65.7726 54.6957 68.563 56.4348 70.5767C58.1739 72.5904 60.6377 73.5973 63.8261 73.5973C67.0725 73.5973 69.5942 72.5904 71.3913 70.5767C73.2464 68.563 74.1739 65.7726 74.1739 62.2055V32H82V79.4657H74.3478V70.4041H74.087C73.913 73.4534 73.0435 75.8699 71.4783 77.6534C69.913 79.437 67.3333 80.3288 63.7391 80.3288C60.1449 80.3288 57.6522 79.437 56.2609 77.6534C54.8696 75.8699 54.087 73.4534 53.913 70.4041H53.6522L53.8261 81.1918V95H46Z"
    fill="#B7ACDF"
  />
</svg>
